<svg width="32" height="32" viewBox="0 0 32 32" fill="none" xmlns="http://www.w3.org/2000/svg">
<path d="M0 16C0 7.16344 7.16344 0 16 0V0C24.8366 0 32 7.16344 32 16V16C32 24.8366 24.8366 32 16 32V32C7.16344 32 0 24.8366 0 16V16Z" fill="url(#paint0_linear_121_287)"/>
<path d="M24.5228 20.4097C24.982 20.4097 25.3543 20.0374 25.3543 19.5781C25.3543 19.1189 24.982 18.7466 24.5228 18.7466C24.0635 18.7466 23.6912 19.1189 23.6912 19.5781C23.6912 20.0374 24.0635 20.4097 24.5228 20.4097Z" fill="#F7C38B"/>
<path fill-rule="evenodd" clip-rule="evenodd" d="M24.5228 20.24C24.8883 20.24 25.1846 19.9436 25.1846 19.5781C25.1846 19.2126 24.8883 18.9163 24.5228 18.9163C24.1572 18.9163 23.8609 19.2126 23.8609 19.5781C23.8609 19.9436 24.1572 20.24 24.5228 20.24ZM25.3543 19.5781C25.3543 20.0374 24.982 20.4097 24.5228 20.4097C24.0635 20.4097 23.6912 20.0374 23.6912 19.5781C23.6912 19.1189 24.0635 18.7466 24.5228 18.7466C24.982 18.7466 25.3543 19.1189 25.3543 19.5781Z" fill="black"/>
<path d="M12.8007 24.3203C12.8007 24.3203 11.8707 22.2533 12.0847 20.3848C12.319 18.3912 13.5182 16.8416 14.8142 15.3503C15.469 14.5969 16.1537 13.8919 16.6707 13.031C21.6116 4.22723 7.59838 -0.583378 6.61071 10.4166C6.59785 10.5598 6.68476 10.5823 6.75985 10.5342C7.09628 10.319 8.05397 9.68778 8.05397 9.68778C9.74331 8.65601 11.221 10.0324 10.8185 11.6252C10.6588 12.2574 10.2497 12.8446 9.9493 13.4161C9.15487 14.9276 8.24721 16.4965 7.99983 18.2075C6.86302 26.0701 14.8427 27.9167 15.2985 27.9233C17.8005 27.9597 20.3058 27.9233 22.8081 27.9233C22.8081 27.9233 22.9562 27.6522 22.8081 27.3983C22.66 27.1444 22.428 27.0364 22.1291 26.9744C21.8753 26.9275 21.8282 26.9526 21.36 26.9077C20.73 26.8473 20.0345 26.6661 20.0345 26.6661C21.6273 25.1426 21.5994 22.3082 19.4839 20.1867C20.2539 20.6391 20.8502 20.8269 20.9959 20.8654C21.2868 20.9424 22.2592 21.1198 23.3313 20.5871C23.6461 20.5183 24.3185 20.686 24.8088 20.5241C25.2084 20.3922 25.3772 20.0258 25.3454 19.9301C25.3378 19.9072 25.2504 19.9004 25.2125 19.8955C24.8555 19.8493 23.5679 19.509 23.2138 19.6321C22.6476 19.8289 21.4095 19.4693 21.26 19.2472C20.9885 18.8438 20.8538 18.4703 20.8227 18.3085C20.7515 17.938 20.9774 17.2036 21.267 17.0625C21.5567 16.9215 22.0309 17.0625 22.0309 17.0625C22.0309 17.0625 22.4773 17.2156 23.0071 17.1405C23.3961 17.0854 23.7706 16.9143 24.1167 16.7367C24.1928 16.6976 24.4817 16.5737 24.5836 16.3976C24.6405 16.2992 24.6504 16.0584 24.6496 16.0054C24.6347 14.959 24.3355 13.9041 23.9518 12.9392C23.6426 12.3398 23.0954 11.7192 22.4731 11.343C21.8508 10.9668 21.1172 10.8016 20.9849 10.8016H20.5043C20.1746 10.4047 20.0296 10.1896 19.722 9.51772C19.6059 9.26418 19.3676 9.30808 19.1963 9.45065C18.451 10.0709 18.6887 11.236 18.706 12.0583C18.7073 12.1508 18.702 12.1997 18.6898 12.2574C18.4481 13.1366 17.6346 14.0364 16.8934 14.7446C16.3703 15.2445 15.8132 15.6977 15.2593 16.1622C15.1069 16.2899 14.9574 16.4207 14.8142 16.5585C13.7326 17.5998 12.8807 19.0842 12.6339 20.5241C12.3925 21.9322 12.6057 22.9229 12.8007 24.3203Z" fill="black"/>
<defs>
<linearGradient id="paint0_linear_121_287" x1="13.2731" y1="-1.95034" x2="13.2731" y2="30.0497" gradientUnits="userSpaceOnUse">
<stop stop-color="#F7C38B"/>
<stop offset="1" stop-color="#A97F54"/>
</linearGradient>
</defs>
</svg>
