<svg width="584" height="250" viewBox="0 0 584 250" fill="none" xmlns="http://www.w3.org/2000/svg">
<g clip-path="url(#clip0_121_297)">
<rect width="583.75" height="250" fill="white"/>
<path d="M0 0H584V250H0V0Z" fill="url(#paint0_linear_121_297)"/>
<path d="M302.986 158.287L318 139.55C318.108 139.415 318.245 139.306 318.401 139.231C318.557 139.156 318.728 139.118 318.901 139.118H323.082C323.388 139.118 323.682 139.239 323.899 139.456C324.115 139.672 324.237 139.966 324.237 140.272V171.452C324.237 171.759 324.115 172.052 323.899 172.269C323.682 172.485 323.388 172.607 323.082 172.607H319.502C319.195 172.607 318.901 172.485 318.685 172.269C318.468 172.052 318.346 171.759 318.346 171.452V147.548L305.445 163.648C305.159 164.005 304.794 164.291 304.378 164.482C303.962 164.673 303.508 164.765 303.05 164.75C302.593 164.735 302.146 164.614 301.743 164.396C301.341 164.178 300.995 163.869 300.733 163.494L289.796 147.845C289.661 147.651 289.589 147.42 289.589 147.184V139.118L302.986 158.287ZM286.471 139.117H281.733V143.854C281.734 144.16 281.855 144.453 282.072 144.67C282.288 144.886 282.582 145.008 282.888 145.008H286.469C286.775 145.008 287.069 144.886 287.285 144.67C287.501 144.453 287.623 144.16 287.623 143.854V140.274C287.623 140.122 287.594 139.972 287.536 139.832C287.479 139.692 287.394 139.564 287.287 139.457C287.18 139.349 287.053 139.264 286.913 139.206C286.773 139.147 286.623 139.117 286.472 139.117H286.471ZM287.625 148.124V171.451C287.625 171.758 287.503 172.051 287.287 172.268C287.07 172.484 286.777 172.606 286.471 172.606H282.89C282.583 172.606 282.29 172.484 282.073 172.268C281.857 172.051 281.735 171.758 281.735 171.451V146.97H286.472C286.778 146.97 287.071 147.092 287.288 147.309C287.504 147.525 287.625 147.819 287.625 148.125V148.124Z" fill="black"/>
<path d="M252.766 155.862L275.172 172.61H267.125C266.876 172.61 266.633 172.53 266.434 172.38L247.491 158.223C247.124 157.949 246.826 157.593 246.621 157.184C246.416 156.774 246.309 156.323 246.309 155.865C246.309 155.407 246.416 154.955 246.621 154.546C246.826 154.136 247.124 153.78 247.491 153.506L266.434 139.349C266.633 139.2 266.876 139.12 267.125 139.12H275.172L252.766 155.862ZM243.18 139.113H238.442V143.85C238.442 144.157 238.564 144.45 238.781 144.667C238.997 144.883 239.291 145.005 239.597 145.005H243.178C243.484 145.005 243.778 144.883 243.995 144.667C244.211 144.45 244.333 144.157 244.333 143.85V140.27C244.333 139.965 244.211 139.671 243.995 139.455C243.778 139.239 243.485 139.117 243.179 139.117L243.18 139.113ZM244.335 148.12V171.448C244.334 171.754 244.213 172.048 243.996 172.264C243.78 172.481 243.486 172.602 243.18 172.603H239.599C239.293 172.603 238.999 172.481 238.782 172.264C238.566 172.048 238.444 171.754 238.444 171.448V146.97H243.182C243.488 146.97 243.781 147.092 243.997 147.309C244.213 147.525 244.335 147.819 244.335 148.125V148.12Z" fill="black"/>
<path d="M223.577 172.607L211.216 163.368H206.08C205.299 163.368 204.55 163.058 203.998 162.506C203.445 161.953 203.135 161.205 203.135 160.424V160.424C203.135 159.643 203.445 158.894 203.998 158.341C204.55 157.789 205.299 157.478 206.08 157.478H217.341C218.16 157.478 218.971 157.317 219.727 157.004C220.484 156.69 221.171 156.231 221.75 155.652C222.329 155.073 222.789 154.385 223.102 153.629C223.416 152.872 223.577 152.061 223.577 151.242V151.242C223.577 149.589 222.92 148.002 221.75 146.833C220.581 145.663 218.995 145.007 217.341 145.007H202.326C202.02 145.007 201.726 144.885 201.51 144.668C201.293 144.452 201.172 144.158 201.172 143.852V139.115H217.341C218.933 139.115 220.511 139.428 221.983 140.037C223.454 140.647 224.791 141.54 225.918 142.666C227.044 143.792 227.938 145.129 228.547 146.601C229.157 148.072 229.47 149.65 229.47 151.242V151.242C229.47 154.1 228.461 156.865 226.621 159.051C224.781 161.237 222.228 162.703 219.412 163.191L232.008 172.607H223.577ZM198.053 139.117H193.315V143.854C193.315 144.16 193.437 144.453 193.653 144.67C193.87 144.887 194.164 145.008 194.47 145.008H198.05C198.356 145.008 198.65 144.887 198.867 144.67C199.083 144.453 199.205 144.16 199.205 143.854V140.274C199.205 140.122 199.175 139.972 199.118 139.832C199.06 139.692 198.975 139.564 198.868 139.457C198.761 139.349 198.634 139.264 198.494 139.206C198.354 139.147 198.204 139.117 198.053 139.117V139.117ZM199.207 148.124V171.451C199.207 171.757 199.085 172.051 198.869 172.267C198.652 172.484 198.359 172.606 198.053 172.606H194.472C194.166 172.606 193.873 172.484 193.656 172.267C193.44 172.051 193.318 171.757 193.318 171.451V146.97H198.055C198.361 146.971 198.654 147.092 198.87 147.309C199.086 147.525 199.207 147.819 199.207 148.124V148.124Z" fill="black"/>
<path d="M150.887 171.451C150.887 171.758 151.009 172.051 151.226 172.267C151.442 172.484 151.736 172.606 152.042 172.606H177.076C179.687 172.606 182.192 171.569 184.038 169.722C185.885 167.876 186.922 165.372 186.922 162.761C186.925 160.179 185.91 157.7 184.097 155.861C185.91 154.022 186.925 151.543 186.922 148.961C186.922 147.668 186.667 146.388 186.173 145.194C185.678 143.999 184.952 142.914 184.038 142C183.124 141.086 182.038 140.361 180.844 139.866C179.649 139.371 178.369 139.117 177.076 139.117H150.887V171.451ZM181.032 162.762C181.032 163.811 180.615 164.818 179.873 165.559C179.131 166.301 178.125 166.718 177.076 166.718H156.778V145.007H177.076C178.125 145.007 179.131 145.424 179.873 146.166C180.615 146.908 181.032 147.914 181.032 148.963C181.032 150.012 180.615 151.018 179.873 151.76C179.131 152.501 178.125 152.918 177.076 152.918H163.649C162.869 152.918 162.12 153.229 161.567 153.781C161.015 154.333 160.705 155.082 160.705 155.863V155.863C160.705 156.644 161.015 157.392 161.567 157.945C162.119 158.497 162.868 158.807 163.649 158.807H177.076C178.125 158.807 179.131 159.224 179.873 159.966C180.615 160.707 181.032 161.713 181.032 162.762V162.762Z" fill="black"/>
<path d="M152.197 134.341C154.528 134.341 156.418 132.451 156.418 130.119C156.418 127.787 154.528 125.896 152.197 125.896C149.865 125.896 147.975 127.787 147.975 130.119C147.975 132.451 149.865 134.341 152.197 134.341Z" fill="#F7C38B"/>
<path fill-rule="evenodd" clip-rule="evenodd" d="M152.197 133.479C154.052 133.479 155.557 131.975 155.557 130.119C155.557 128.263 154.052 126.758 152.197 126.758C150.341 126.758 148.836 128.263 148.836 130.119C148.836 131.975 150.341 133.479 152.197 133.479ZM156.418 130.119C156.418 132.451 154.528 134.341 152.197 134.341C149.865 134.341 147.975 132.451 147.975 130.119C147.975 127.787 149.865 125.896 152.197 125.896C154.528 125.896 156.418 127.787 156.418 130.119Z" fill="black"/>
<path d="M92.6833 154.197C92.6833 154.197 87.9613 143.702 89.0482 134.215C90.2379 124.092 96.326 116.224 102.906 108.652C106.23 104.826 109.706 101.246 112.331 96.8753C137.416 52.1732 66.2709 27.747 61.2565 83.6003C61.1912 84.3275 61.6324 84.4414 62.0137 84.1974C63.7217 83.1044 68.5839 79.8996 68.5839 79.8996C77.1608 74.6607 84.6629 81.6492 82.6196 89.7368C81.8085 92.9469 79.7318 95.9284 78.2066 98.8306C74.1732 106.505 69.565 114.472 68.3091 123.159C62.5374 163.082 103.05 172.458 105.365 172.492C118.067 172.677 130.787 172.492 143.491 172.492C143.491 172.492 144.243 171.115 143.491 169.826C142.739 168.537 141.561 167.989 140.044 167.674C138.755 167.436 138.516 167.563 136.139 167.335C132.94 167.029 129.409 166.108 129.409 166.108C137.496 158.373 137.354 143.981 126.614 133.209C130.523 135.506 133.551 136.459 134.29 136.655C135.767 137.046 140.704 137.947 146.147 135.242C147.746 134.892 151.159 135.744 153.649 134.922C155.677 134.252 156.535 132.392 156.373 131.906C156.334 131.789 155.891 131.755 155.698 131.73C153.886 131.495 147.349 129.768 145.551 130.393C142.676 131.392 136.39 129.566 135.631 128.438C134.253 126.39 133.569 124.493 133.411 123.672C133.05 121.791 134.196 118.062 135.667 117.345C137.138 116.629 139.545 117.345 139.545 117.345C139.545 117.345 141.812 118.123 144.501 117.741C146.476 117.461 148.378 116.593 150.135 115.691C150.521 115.493 151.988 114.864 152.505 113.969C152.794 113.47 152.844 112.247 152.84 111.978C152.765 106.664 151.246 101.308 149.298 96.4088C147.728 93.3652 144.95 90.2141 141.79 88.304C138.631 86.3939 134.906 85.555 134.235 85.555H131.795C130.121 83.54 129.385 82.4475 127.823 79.0361C127.233 77.7487 126.023 77.9716 125.154 78.6955C121.37 81.8451 122.577 87.7606 122.665 91.936C122.671 92.4059 122.644 92.6542 122.582 92.9469C121.355 97.4112 117.225 101.98 113.462 105.576C110.806 108.114 107.978 110.415 105.165 112.774C104.392 113.422 103.633 114.086 102.906 114.786C97.4145 120.073 93.0896 127.611 91.8362 134.922C90.6106 142.071 91.6931 147.102 92.6833 154.197Z" fill="black"/>
<path d="M410 90.1617C410 85.2399 413.99 81.25 418.912 81.25H542.338C547.26 81.25 551.25 85.2399 551.25 90.1617V253.691C551.25 258.613 547.26 262.603 542.338 262.603H418.912C413.99 262.603 410 258.613 410 253.691V90.1617Z" fill="black"/>
<path d="M464.028 118.545L483.926 124.538C483.926 124.538 490.797 123.618 493.748 127.357C495.699 129.828 495.283 134.326 494.773 137.114C494.656 137.753 495.096 144.115 495.52 143.908C496.46 143.45 498.272 140.167 508.339 138.757C525.803 135.887 531.92 132.264 531.92 132.264C531.92 132.264 530.556 145.684 521.956 152.59C513.355 159.497 500.865 159.89 500.865 159.89C500.865 159.89 501.666 167.52 504.573 179.017C507.479 190.514 512.878 207.007 512.878 207.007C512.878 207.007 510.171 210.048 507.075 204.955C503.98 199.862 503.166 193.119 500.497 186.635C498.087 180.78 489.378 171.532 486.363 167.277C483.348 163.022 480.279 159.827 479.857 152.59C479.66 149.225 481.709 144.06 482.371 140.383C482.654 138.289 482.858 134.611 482.643 132.264C482.587 131.656 482.275 129.706 481.646 128.476C481.018 127.247 480.49 126.331 479.857 125.832C478.842 125.033 463.421 120.174 463.421 120.174C463.421 120.174 462.439 119.818 462.739 118.99C463.04 118.162 464.028 118.545 464.028 118.545Z" fill="url(#paint1_linear_121_297)"/>
<path d="M451.107 192.753H430.318C429.991 192.752 429.666 192.817 429.364 192.942C429.061 193.067 428.786 193.25 428.555 193.482C428.323 193.713 428.139 193.988 428.014 194.29C427.888 194.592 427.824 194.917 427.823 195.244V220.488C427.824 220.815 427.888 221.139 428.014 221.442C428.139 221.744 428.323 222.019 428.555 222.25C428.786 222.482 429.061 222.665 429.364 222.79C429.666 222.915 429.991 222.979 430.318 222.979H451.107V221.484C451.106 221.092 451.029 220.703 450.878 220.34C450.728 219.977 450.507 219.647 450.229 219.37C449.951 219.092 449.621 218.872 449.258 218.722C448.895 218.572 448.506 218.495 448.113 218.495H432.813V209.942H447.816V208.447C447.816 208.054 447.738 207.665 447.588 207.302C447.437 206.94 447.216 206.61 446.938 206.332C446.66 206.055 446.33 205.835 445.967 205.685C445.604 205.534 445.215 205.457 444.822 205.458H432.813V197.237H448.113C448.506 197.237 448.895 197.16 449.258 197.01C449.621 196.86 449.951 196.64 450.229 196.362C450.507 196.085 450.728 195.755 450.878 195.392C451.029 195.029 451.107 194.64 451.107 194.247L451.107 192.753Z" fill="url(#paint2_linear_121_297)"/>
<path d="M480.267 192.753H459.506C458.846 192.753 458.212 193.015 457.745 193.482C457.278 193.95 457.015 194.583 457.015 195.244V222.979H459.506C459.834 222.979 460.157 222.915 460.46 222.79C460.762 222.664 461.037 222.481 461.268 222.25C461.499 222.018 461.683 221.744 461.808 221.441C461.933 221.139 461.998 220.815 461.998 220.488V209.942H476.98V208.447C476.98 207.654 476.665 206.894 476.105 206.333C475.544 205.773 474.784 205.458 473.991 205.458H461.998V197.237H477.277C478.07 197.237 478.83 196.922 479.391 196.361C479.952 195.801 480.267 195.04 480.267 194.247L480.267 192.753Z" fill="url(#paint3_linear_121_297)"/>
<path fill-rule="evenodd" clip-rule="evenodd" d="M477.139 222.979L488.873 194.6C489.099 194.053 489.482 193.586 489.974 193.257C490.465 192.928 491.044 192.753 491.635 192.753H496.172L508.661 222.979H505.795C505.203 222.979 504.624 222.803 504.133 222.474C503.641 222.145 503.258 221.678 503.032 221.131L500.846 215.838H485.485L483.3 221.131C483.074 221.678 482.691 222.145 482.199 222.474C481.707 222.803 481.128 222.979 480.536 222.979H477.139ZM487.337 211.354H498.995L493.166 197.237L487.337 211.354Z" fill="url(#paint4_linear_121_297)"/>
</g>
<defs>
<linearGradient id="paint0_linear_121_297" x1="292" y1="0" x2="292" y2="250" gradientUnits="userSpaceOnUse">
<stop stop-color="#F7C38B"/>
<stop offset="1" stop-color="#A97F54"/>
</linearGradient>
<linearGradient id="paint1_linear_121_297" x1="497.301" y1="118.456" x2="497.301" y2="207.908" gradientUnits="userSpaceOnUse">
<stop stop-color="#F7C38B"/>
<stop offset="1" stop-color="#A97F54"/>
</linearGradient>
<linearGradient id="paint2_linear_121_297" x1="439.465" y1="192.753" x2="439.465" y2="222.979" gradientUnits="userSpaceOnUse">
<stop stop-color="#F7C38B"/>
<stop offset="1" stop-color="#A97F54"/>
</linearGradient>
<linearGradient id="paint3_linear_121_297" x1="468.641" y1="192.753" x2="468.641" y2="222.979" gradientUnits="userSpaceOnUse">
<stop stop-color="#F7C38B"/>
<stop offset="1" stop-color="#A97F54"/>
</linearGradient>
<linearGradient id="paint4_linear_121_297" x1="492.9" y1="192.753" x2="492.9" y2="222.979" gradientUnits="userSpaceOnUse">
<stop stop-color="#F7C38B"/>
<stop offset="1" stop-color="#A97F54"/>
</linearGradient>
<clipPath id="clip0_121_297">
<rect width="583.75" height="250" fill="white"/>
</clipPath>
</defs>
</svg>
