<svg width="1024" height="1024" viewBox="0 0 1024 1024" fill="none" xmlns="http://www.w3.org/2000/svg">
<rect width="1024" height="1024" rx="128" fill="white"/>
<path d="M763.789 642.146C777.32 642.146 788.289 631.177 788.289 617.646C788.289 604.116 777.32 593.146 763.789 593.146C750.258 593.146 739.289 604.116 739.289 617.646C739.289 631.177 750.258 642.146 763.789 642.146Z" fill="#F7C38B"/>
<path fill-rule="evenodd" clip-rule="evenodd" d="M763.789 637.146C774.559 637.146 783.289 628.416 783.289 617.646C783.289 606.877 774.559 598.146 763.789 598.146C753.02 598.146 744.289 606.877 744.289 617.646C744.289 628.416 753.02 637.146 763.789 637.146ZM788.289 617.646C788.289 631.177 777.32 642.146 763.789 642.146C750.258 642.146 739.289 631.177 739.289 617.646C739.289 604.116 750.258 593.146 763.789 593.146C777.32 593.146 788.289 604.116 788.289 617.646Z" fill="black"/>
<path d="M418.416 757.366C418.416 757.366 391.013 696.466 397.32 641.414C404.224 582.674 439.555 537.018 477.74 493.08C497.031 470.883 517.205 450.11 532.438 424.747C678.014 165.357 265.138 23.6205 236.038 347.717C235.659 351.936 238.219 352.597 240.432 351.182C250.344 344.839 278.561 326.243 278.561 326.243C328.334 295.844 371.871 336.396 360.013 383.325C355.307 401.952 343.255 419.253 334.404 436.093C310.997 480.626 284.254 526.852 276.966 577.262C243.471 808.921 478.579 863.328 492.009 863.523C565.726 864.596 639.541 863.523 713.267 863.523C713.267 863.523 717.631 855.535 713.267 848.054C708.902 840.573 702.068 837.391 693.262 835.564C685.784 834.182 684.394 834.923 670.6 833.6C652.038 831.82 631.547 826.48 631.547 826.48C678.477 781.594 677.654 698.081 615.325 635.575C638.012 648.905 655.579 654.438 659.872 655.574C668.443 657.843 697.093 663.069 728.681 647.374C737.957 645.345 757.768 650.287 772.214 645.517C783.987 641.63 788.962 630.836 788.024 628.017C787.799 627.341 785.225 627.141 784.108 626.997C773.591 625.635 735.653 615.61 725.219 619.236C708.539 625.033 672.058 614.439 667.653 607.894C659.656 596.01 655.685 585.004 654.77 580.238C652.673 569.321 659.327 547.683 667.861 543.527C676.396 539.371 690.368 543.527 690.368 543.527C690.368 543.527 703.521 548.039 719.13 545.825C730.592 544.2 741.624 539.16 751.822 533.927C754.064 532.776 762.575 529.126 765.578 523.938C767.256 521.037 767.546 513.944 767.524 512.38C767.084 481.55 758.27 450.471 746.963 422.04C737.853 404.379 721.731 386.094 703.396 375.011C685.061 363.927 663.447 359.06 659.549 359.06H645.39C635.674 347.367 631.403 341.028 622.338 321.232C618.918 313.762 611.897 315.056 606.85 319.256C584.892 337.532 591.896 371.858 592.406 396.086C592.443 398.813 592.288 400.254 591.928 401.952C584.807 427.857 560.837 454.367 539 475.234C523.589 489.961 507.172 503.316 490.852 517C486.364 520.764 481.958 524.617 477.74 528.677C445.872 559.356 420.774 603.093 413.5 645.517C406.387 687.003 412.67 716.194 418.416 757.366Z" fill="black"/>
</svg>
